<?xml version="1.0" encoding="UTF-8"?>
<svg id="Layer_1" data-name="Layer 1" xmlns="http://www.w3.org/2000/svg" viewBox="0 0 80 80">
  <defs>
    <style>
      .cls-1 {
        fill: #626875;
      }
    </style>
  </defs>
  <path class="cls-1" d="m12.4,59.85c-.19,0-.4-.16-.62-.48v-.36s.13-.15.13-.15c.16-.19.33-.38.5-.56,2.03-2.04,4.06-4.07,6.09-6.1l.77-.77c.1-.11.21-.21.33-.3.11-.08.24-.12.38-.12.16,0,.31.06.42.16.24.21.28.55.11.82-.08.13-.21.26-.34.38-2.34,2.35-4.69,4.69-7.04,7.04-.29.29-.55.45-.74.45Z"/>
  <path class="cls-1" d="m12.79,69.29c-.23-.16-.46-.37-.48-.58-.03-.25.23-.56.44-.78,2.34-2.35,4.69-4.69,7.04-7.04.12-.12.25-.25.39-.34.1-.07.22-.1.34-.1.17,0,.33.07.45.19.21.21.24.55.08.79-.09.14-.22.26-.34.38-2.3,2.3-4.55,4.56-6.81,6.81-.19.19-.39.36-.59.53l-.16.14h-.36Z"/>
  <path class="cls-1" d="m21.7,69.29c-.23-.16-.46-.37-.48-.58-.03-.25.23-.56.44-.78,2.34-2.35,4.69-4.69,7.04-7.04.12-.12.25-.25.39-.34.1-.07.22-.1.34-.1.17,0,.33.07.45.19.21.21.24.55.08.79-.09.14-.22.26-.34.38-2.3,2.3-4.55,4.56-6.81,6.81-.19.19-.39.36-.59.53l-.16.14h-.36Z"/>
  <path class="cls-1" d="m42.06,58.61c-.31,0-.5-.12-.62-.39-.12-.26-.11-.5.26-.9,1.42-1.51,2.1-3.39,2.01-5.57-.03-.82-.35-1.23-.94-1.23-.19,0-.4.05-.69.15-1.45.51-2.9,1-4.36,1.48-.4.13-.76.2-1.1.2-.33,0-.63-.06-.93-.18l-.31-.12-.22.25c-.09.09-.16.17-.21.28-1.18,2.44-3.1,4.04-5.71,4.76-1.74.48-3.56.81-5.32,1.13l-.61.11c-.07.01-.14.02-.21.02-.14,0-.34-.03-.48-.19-.12-.14-.18-.35-.15-.61.3-2.86.84-5.16,1.72-7.25.77-1.84,2.07-3.24,3.98-4.29l.83-.45-.1-.43c-.39-.88-.11-1.75.19-2.67l.1-.31c.3-.96.66-1.93,1.01-2.87l.23-.62c.11-.31.23-.75,0-1.12-.24-.36-.68-.43-.99-.44-.17,0-.33-.01-.5-.01-1.94,0-3.64.64-5.06,1.9-.06.06-.12.11-.18.17-.19.19-.37.28-.55.28-.09,0-.19-.02-.3-.07-.23-.11-.38-.28-.37-.76.05-1.63.37-3.23.98-4.9.86-2.35,2-4.22,3.49-5.71,1.63-1.63,3.56-2.5,5.57-2.5,1.29,0,2.61.34,3.93,1.02l.89.47,1.02-1.09c.55-.6,1.1-1.19,1.67-1.75,3.52-3.51,7.86-6.19,13.26-8.2,4.24-1.57,8.72-2.57,13.29-2.96.14-.01.28-.02.42-.02h0c.28,0,.57.04.73.21.11.13.16.34.12.62l-.11.91c-.21,1.79-.42,3.65-.78,5.43-1.22,6.11-3.31,11.32-6.4,15.92-1.63,2.43-3.67,4.71-6.06,6.77l-.55.49.1.29c.13.37.26.72.4,1.07.28.74.55,1.43.7,2.14.49,2.26-.06,4.36-1.63,6.26-1.85,2.23-4.37,3.76-7.72,4.68-.84.23-1.74.34-2.61.45-.31.04-.63.08-.94.12-.06,0-.13.01-.19.01Zm-12.26-11.58c-.15,0-.31.04-.49.12-1.96.93-3.16,2.09-3.8,3.66-.45,1.12-.79,2.3-1.12,3.44l-.05.19c-.13.47-.21.94-.3,1.44-.04.23-.08.46-.13.71l-.12.64.65-.1c2.28-.35,4.01-.8,5.61-1.47,1.66-.7,2.92-1.96,3.84-3.84.25-.51.18-.92-.22-1.31-1.06-1.03-2.11-2.08-3.14-3.14-.08-.08-.34-.34-.72-.34Zm14.81,2.72l.11.34c.58,1.84.31,3.72-.65,6.19-.08.19-.28.79-.28.79,0,0,.72-.08.96-.12,3.51-.63,6.04-2.31,7.85-4.55,1.73-2.14,1.91-5.21.42-7.31l-.25-.35-8.16,5.01Zm-13.23-9.86l-.36,1.14c-.28.9-.57,1.8-.87,2.69-.25.74-.08,1.39.52,1.98.98.96,1.94,1.93,2.91,2.9l1.4,1.4c.69.7,1.03,1.05,1.63,1.05.32,0,.65-.1,1.19-.27l.56-.17c.66-.2,1.32-.43,1.96-.65l1.54-.53-10.24-10.24-.24.72Zm22.37-22.41c-.15,0-.3.03-.48.1-9.19,3.4-15.96,9.82-20.69,19.63-.21.44-.15.8.2,1.15,3.31,3.3,6.62,6.61,9.92,9.92.14.14.36.32.68.32.16,0,.32-.05.49-.14.4-.22.81-.42,1.22-.63.62-.32,1.24-.63,1.84-.98,8.01-4.59,13.57-10.99,16.52-19.03l.28-.73-.29-.32c-.08-.09-.17-.2-.27-.29l-2.21-2.21c-2.14-2.14-4.27-4.27-6.4-6.42-.18-.18-.44-.39-.82-.39Zm-21.06,9.56c-1.5,0-2.98.54-4.18,1.53-1.81,1.49-3.09,3.52-4.05,6.37-.11.33-.2.66-.29,1.02l-.38,1.4.85-.32c1.8-.68,3.24-1.01,4.41-1.01.69,0,1.29.11,1.83.34l.37.16,5.06-8.24-.36-.25c-.94-.65-2.07-1-3.27-1Zm33.15-12.39c-1.82,0-8.13,1.3-9.64,1.99l-.61.28,8.64,8.64.24-.71c.95-2.79,2.04-8.46,1.9-9.78l-.05-.4h-.48Z"/>
  <path class="cls-1" d="m34.11,63.31c-.16,0-.31-.07-.43-.19-.27-.28-.26-.64.05-.95.98-1,1.98-1.99,2.97-2.98l.09-.09c.16-.16.32-.24.48-.24.08,0,.18.02.27.07.18.08.35.2.38.67,0,.01-.01.03-.02.04-.06.13-.13.29-.23.39-.99,1.02-2,2.03-3.02,3.03-.16.16-.36.25-.55.25Z"/>
  <path class="cls-1" d="m18.41,47.58c-.08,0-.17-.02-.26-.06-.18-.08-.35-.19-.39-.65,0-.02.02-.04.03-.06.07-.14.15-.31.25-.42.98-1.01,1.98-2,2.98-2.99.17-.17.37-.26.56-.26.16,0,.3.06.42.18.29.29.27.64-.06.98-.91.93-1.84,1.85-2.76,2.77l-.26.26c-.17.17-.33.25-.49.25h0Z"/>
  <path class="cls-1" d="m51.45,34.69c-2.85,0-5.08-2.25-5.08-5.09,0-2.8,2.28-5.09,5.08-5.1,1.38,0,2.66.54,3.64,1.53.97.98,1.49,2.26,1.48,3.6-.03,2.84-2.27,5.07-5.1,5.07h-.02Zm0-8.9c-2.08.02-3.77,1.73-3.77,3.81,0,2.12,1.66,3.78,3.78,3.79,2.12,0,3.79-1.65,3.81-3.76,0-1.01-.38-1.97-1.11-2.7-.72-.73-1.68-1.13-2.69-1.13h-.03Z"/>
  <path class="cls-1" d="m41.06,40.62c-.36,0-.62-.28-.62-.64,0-.36.28-.64.63-.64.18,0,.34.07.46.2.12.13.19.29.18.47-.01.35-.29.61-.65.61h-.01Z"/>
  <path class="cls-1" d="m43.27,38.58c-.16,0-.3-.06-.41-.18-.27-.28-.26-.64.05-.95.66-.67.91-.9,1.29-1.26.2-.19.44-.41.79-.74.17-.17.33-.23.49-.25.1,0,.25,0,.35.05.28.13.39.38.32.74-.02.09-.08.19-.25.37l-.51.52c-.49.49-.71.71-1.52,1.43-.19.16-.39.26-.58.26h0Z"/>
</svg>