<?xml version="1.0" encoding="UTF-8"?>
<svg id="Layer_1" data-name="Layer 1" xmlns="http://www.w3.org/2000/svg" viewBox="0 0 80 80">
  <defs>
    <style>
      .cls-1 {
        fill: #626875;
      }
    </style>
  </defs>
  <path class="cls-1" d="m43.42,68.41c-13.6,0-24.67-11.07-24.67-24.67,0-2.23,0-4.16.66-6.14.12-.37.52-.57.89-.44.37.12.57.52.44.89-.59,1.76-.59,3.58-.59,5.69,0,12.83,10.44,23.27,23.27,23.27s23.27-10.65,23.27-23.27-10.44-23.27-23.27-23.27c-1.21,0-2.79.2-4.84.61-.38.08-.75-.17-.83-.55s.17-.75.55-.83c2.17-.43,3.8-.64,5.12-.64,13.6,0,24.67,11.07,24.67,24.67,0,6.51-2.59,12.69-7.29,17.38-4.7,4.7-10.87,7.29-17.38,7.29Z"/>
  <path class="cls-1" d="m43.42,57.2c-7.6,0-13.78-6.18-13.78-13.78,0-1.09.22-2.51.64-4.22.09-.38.47-.61.85-.51.38.09.61.48.51.85-.39,1.57-.6,2.91-.6,3.88,0,6.82,5.55,12.37,12.37,12.37s12.37-5.55,12.37-12.37-5.55-12.37-12.37-12.37c-1.46,0-2.94.3-4.41.88-.36.14-.77-.03-.91-.39-.14-.36.03-.77.39-.91,1.63-.65,3.29-.98,4.93-.98,7.6,0,13.78,6.18,13.78,13.78s-6.18,13.78-13.78,13.78Z"/>
  <path class="cls-1" d="m43.42,44.44c-.18,0-.36-.07-.5-.21l-12.55-12.55-10.28.3c-.2.01-.39-.07-.53-.22l-7.47-7.78c-.17-.18-.24-.44-.17-.68s.27-.43.51-.49l7.75-1.86c.71-.24,1.16-.69,1.4-1.41l2.17-7.45c.07-.24.26-.42.5-.48.24-.06.5,0,.67.18l7.78,7.78c.16.16.23.38.2.6l-1.51,10.55,12.52,12.52c.27.27.27.72,0,.99-.14.14-.32.21-.5.21ZM13.96,23.9l6.41,6.67,9.68-.28,1.42-9.96-6.69-6.69-1.85,6.33c-.39,1.18-1.17,1.95-2.32,2.34-.02,0-.04.01-.06.02l-6.59,1.58Z"/>
</svg>