<?xml version="1.0" encoding="UTF-8"?>
<svg id="Layer_1" data-name="Layer 1" xmlns="http://www.w3.org/2000/svg" viewBox="0 0 80 80">
  <defs>
    <style>
      .cls-1 {
        fill: #c4a988;
      }
    </style>
  </defs>
  <g id="Stroke_3-85" data-name="Stroke 3-85">
    <path class="cls-1" d="m36.86,46.52c-.76,0-1.51-.29-2.09-.86l-4.69-4.69c-.28-.28-.28-.73,0-1,.28-.28.73-.28,1,0l4.69,4.69c.58.58,1.59.58,2.17,0l10.97-10.97c.28-.28.73-.28,1,0s.28.73,0,1l-10.97,10.97c-.58.58-1.33.86-2.09.86Z"/>
  </g>
  <path class="cls-1" d="m40,68.1c-15.5,0-28.1-12.61-28.1-28.1s12.61-28.1,28.1-28.1,28.1,12.61,28.1,28.1-12.61,28.1-28.1,28.1Zm0-54.79c-14.71,0-26.68,11.97-26.68,26.68s11.97,26.68,26.68,26.68,26.68-11.97,26.68-26.68-11.97-26.68-26.68-26.68Z"/>
</svg>