<?xml version="1.0" encoding="UTF-8"?>
<svg id="Layer_1" data-name="Layer 1" xmlns="http://www.w3.org/2000/svg" viewBox="0 0 80 80">
  <defs>
    <style>
      .cls-1 {
        fill: #626875;
      }
    </style>
  </defs>
  <g id="Iconly_Light_Volume_Up" data-name="Iconly Light Volume Up">
    <g id="Volume_Up-4" data-name="Volume Up-4">
      <g id="Stroke_1-111" data-name="Stroke 1-111">
        <path class="cls-1" d="m31.6,60.18s-.03,0-.05,0c-1.15-.08-2.26-.54-3.13-1.29l-8.75-7.11h-4.74c-2.77,0-5.03-2.25-5.06-5.01-.45-4.26-.44-8.58,0-12.84.17-2.67,2.34-4.76,5.05-4.83h4.76s8.57-6.99,8.57-6.99c.92-.78,2.06-1.27,3.28-1.41.03,0,.06,0,.1,0,2.21.06,4.09,1.61,4.58,3.77.3,1.42.5,2.86.61,4.29.41,7.73.41,15.58,0,23.36,0,0,0,0,0,.01-.1,1.44-.31,2.88-.61,4.29-.48,2.16-2.37,3.71-4.58,3.77,0,0-.01,0-.02,0ZM14.93,30.52c-1.94.05-3.52,1.56-3.64,3.52-.44,4.2-.44,8.43,0,12.61,0,.02,0,.05,0,.07,0,2,1.64,3.63,3.64,3.63h4.99c.16,0,.32.06.45.16l8.96,7.28c.65.56,1.45.89,2.28.96,1.54-.06,2.85-1.14,3.19-2.65.29-1.33.49-2.71.58-4.07.4-7.73.4-15.53,0-23.19-.11-1.35-.3-2.73-.59-4.08-.34-1.49-1.64-2.58-3.17-2.64-.91.11-1.77.48-2.47,1.08l-8.78,7.16c-.13.1-.29.16-.45.16h-5Zm21.17,21.55h0,0Z"/>
      </g>
      <g id="Stroke_3-104" data-name="Stroke 3-104">
        <path class="cls-1" d="m45.55,52.62c-.14,0-.27-.04-.39-.12-.33-.22-.42-.66-.2-.99,2.26-3.42,3.41-7.4,3.34-11.5.08-4.13-1.08-8.11-3.34-11.53-.22-.33-.13-.77.2-.99.33-.22.77-.13.99.2,2.42,3.67,3.66,7.93,3.57,12.32.08,4.37-1.15,8.62-3.57,12.29-.14.21-.36.32-.6.32Z"/>
      </g>
      <g id="Stroke_5-62" data-name="Stroke 5-62">
        <path class="cls-1" d="m53.71,59.91c-.14,0-.27-.04-.39-.12-.33-.22-.42-.66-.2-.99,3.69-5.59,5.58-12.09,5.45-18.79.13-6.72-1.76-13.22-5.45-18.81-.22-.33-.13-.77.2-.99.33-.22.77-.13.99.2,3.85,5.83,5.82,12.61,5.69,19.6.13,6.96-1.84,13.74-5.69,19.57-.14.21-.36.32-.6.32Z"/>
      </g>
      <g id="Stroke_5-62-2" data-name="Stroke 5-62">
        <path class="cls-1" d="m62.09,67.11c-.14,0-.27-.04-.39-.12-.33-.22-.42-.66-.2-.99,5.11-7.74,7.71-16.73,7.54-26,.17-9.29-2.43-18.28-7.54-26.02-.22-.33-.13-.77.2-.99.33-.22.77-.13.99.2,5.27,7.98,7.96,17.25,7.78,26.8.18,9.53-2.51,18.8-7.78,26.78-.14.21-.36.32-.6.32Z"/>
      </g>
    </g>
  </g>
</svg>