<?xml version="1.0" encoding="UTF-8"?>
<svg id="Layer_1" data-name="Layer 1" xmlns="http://www.w3.org/2000/svg" viewBox="0 0 80 80">
  <defs>
    <style>
      .cls-1 {
        fill: #626875;
      }
    </style>
  </defs>
  <g id="Iconly_Light_Star" data-name="Iconly Light Star">
    <g id="Star-4">
      <g id="Star-5">
        <path class="cls-1" d="m24.9,65.92c-1.03,0-2.02-.55-2.56-1.51-.3-.57-.4-1.21-.3-1.83l2.53-14.41c.09-.51-.08-1.03-.45-1.39l-10.6-10.2c-.55-.55-.85-1.27-.85-2.03,0-.76.3-1.48.84-2.02.47-.43,1.02-.7,1.62-.81l14.58-2.12c.51-.08.96-.41,1.2-.88l6.5-13.07c.33-.68.94-1.21,1.66-1.45.74-.24,1.52-.19,2.21.16.56.28,1.01.72,1.3,1.28h0s6.5,13.09,6.5,13.09c.23.47.68.8,1.2.87l14.56,2.1c.76.1,1.44.5,1.91,1.11.89,1.16.75,2.78-.31,3.77l-10.54,10.2c-.38.36-.55.87-.45,1.37l2.53,14.41c.23,1.56-.83,3.01-2.37,3.26-.64.1-1.27,0-1.84-.28l-12.98-6.8c-.47-.25-1.01-.25-1.47,0l-13.07,6.84c-.43.22-.89.32-1.34.32Zm15.07-50.54c-.17,0-.34.03-.5.08-.39.13-.72.42-.91.79l-6.5,13.07c-.42.85-1.24,1.44-2.17,1.58l-14.57,2.12c-.33.06-.66.22-.92.46-.27.27-.43.66-.43,1.08,0,.42.16.81.46,1.1l10.6,10.19c.68.66.99,1.62.83,2.55l-2.53,14.4c-.05.33,0,.68.16.99.42.75,1.37,1.04,2.15.65l13.05-6.83c.84-.46,1.85-.46,2.7,0l12.96,6.79c.32.16.68.21,1.05.16.83-.14,1.41-.93,1.28-1.76l-2.52-14.38c-.18-.93.13-1.89.83-2.55l10.55-10.2c.58-.54.65-1.41.17-2.03-.26-.34-.63-.55-1.05-.61l-14.57-2.1c-.94-.14-1.76-.73-2.18-1.58l-6.5-13.07c-.16-.31-.41-.56-.73-.71-.22-.11-.47-.17-.72-.17Z"/>
      </g>
    </g>
  </g>
</svg>