<?xml version="1.0" encoding="UTF-8"?>
<svg id="Layer_1" data-name="Layer 1" xmlns="http://www.w3.org/2000/svg" viewBox="0 0 80 80">
  <defs>
    <style>
      .cls-1 {
        fill: #626875;
      }
    </style>
  </defs>
  <path class="cls-1" d="m40,65.85c-.71,0-1.42-.27-1.96-.81l-3.13-3.14c-.37-.37-.92-.52-1.42-.38l-4.3,1.16c-.72.19-1.47.09-2.11-.27-.64-.37-1.1-.97-1.3-1.69l-1.16-4.3c-.14-.5-.53-.9-1.04-1.04l-4.3-1.16c-1.48-.4-2.36-1.93-1.96-3.4l1.16-4.3c.14-.51,0-1.05-.38-1.42l-3.13-3.13c-.52-.52-.81-1.22-.81-1.96s.29-1.44.81-1.96l3.13-3.14c.37-.37.52-.92.38-1.42l-1.16-4.3c-.19-.72-.1-1.47.27-2.11.37-.64.97-1.1,1.69-1.3l4.3-1.16c.5-.14.9-.53,1.04-1.04l1.16-4.3c.19-.72.65-1.31,1.3-1.69.64-.37,1.39-.47,2.11-.27l4.3,1.16c.51.14,1.05,0,1.42-.38l3.14-3.14c1.08-1.08,2.84-1.08,3.93,0h0s3.13,3.14,3.13,3.14c.37.37.92.52,1.42.38l4.3-1.16c.72-.19,1.46-.1,2.11.27.64.37,1.1.97,1.3,1.69l1.16,4.3c.14.5.53.9,1.04,1.04l4.3,1.16c.72.19,1.32.65,1.69,1.3.37.64.47,1.39.27,2.11l-1.16,4.3c-.14.51,0,1.05.38,1.42l3.13,3.14c.52.52.81,1.22.81,1.96s-.29,1.44-.81,1.96l-3.13,3.13c-.37.37-.52.92-.38,1.42l1.16,4.3c.19.72.1,1.47-.27,2.11-.37.64-.97,1.1-1.69,1.3l-4.3,1.16c-.5.14-.9.53-1.04,1.04l-1.16,4.3c-.4,1.48-1.93,2.36-3.4,1.96l-4.3-1.16c-.51-.14-1.05,0-1.42.38l-3.13,3.14c-.54.54-1.25.81-1.96.81Zm-6.14-5.69c.73,0,1.44.29,1.97.81l3.13,3.14c.57.57,1.51.57,2.08,0l3.13-3.14c.7-.7,1.73-.98,2.69-.72l4.3,1.16c.38.1.78.05,1.12-.15.34-.2.58-.51.69-.89l1.16-4.3c.26-.95,1.01-1.7,1.96-1.96l4.3-1.16c.38-.1.7-.35.89-.69s.25-.74.15-1.12l-1.16-4.3c-.26-.96.02-1.99.72-2.69l3.14-3.13c.28-.28.43-.65.43-1.04s-.15-.76-.43-1.04l-3.13-3.14c-.7-.7-.98-1.73-.72-2.69l1.16-4.3c.1-.38.05-.78-.15-1.12-.2-.34-.51-.58-.89-.69l-4.3-1.16c-.95-.26-1.7-1.01-1.96-1.96l-1.16-4.3c-.1-.38-.35-.7-.69-.89-.34-.2-.74-.25-1.12-.15l-4.3,1.16c-.96.26-1.99-.02-2.69-.72l-3.13-3.13c-.57-.57-1.51-.57-2.08,0l-3.13,3.13c-.7.7-1.73.98-2.69.72l-4.3-1.16c-.38-.1-.78-.05-1.12.15-.34.2-.58.51-.69.89l-1.16,4.3c-.26.95-1.01,1.7-1.96,1.96l-4.3,1.16c-.78.21-1.25,1.02-1.04,1.8l1.16,4.3c.26.96-.02,1.99-.72,2.69l-3.13,3.14c-.28.28-.43.65-.43,1.04s.15.76.43,1.04l3.13,3.13c.7.7.98,1.73.72,2.69l-1.16,4.3c-.1.38-.05.78.15,1.12.2.34.51.58.89.69l4.3,1.16c.95.26,1.7,1.01,1.96,1.96l1.16,4.3c.1.38.35.7.69.89.34.2.74.25,1.12.15l4.3-1.16c.24-.06.48-.09.72-.09Z"/>
  <g id="Stroke_3-85" data-name="Stroke 3-85">
    <path class="cls-1" d="m37.03,46.15c-.71,0-1.42-.27-1.97-.81l-4.44-4.43c-.26-.26-.26-.67,0-.93.26-.26.67-.26.93,0l4.44,4.43c.57.57,1.51.57,2.08,0l10.37-10.37c.26-.26.67-.26.93,0,.26.26.26.67,0,.93l-10.37,10.37c-.54.54-1.25.81-1.97.81Z"/>
  </g>
</svg>