<?xml version="1.0" encoding="UTF-8"?>
<svg id="Layer_1" data-name="Layer 1" xmlns="http://www.w3.org/2000/svg" viewBox="0 0 80 80">
  <defs>
    <style>
      .cls-1 {
        fill: #fff;
      }

      .cls-2 {
        fill: #c4a988;
      }
    </style>
  </defs>
  <path class="cls-2" d="m41.67,12.59l3.5,3.5c.6.6,1.47.83,2.29.61l4.79-1.29c1.26-.34,2.56.41,2.9,1.67l1.29,4.8c.22.82.86,1.45,1.67,1.67l4.8,1.29c1.26.34,2.01,1.64,1.67,2.9l-1.29,4.79c-.22.82.01,1.69.61,2.29l3.5,3.5c.93.93.93,2.42,0,3.35l-3.5,3.5c-.6.6-.83,1.47-.61,2.29l1.29,4.79c.34,1.26-.41,2.56-1.67,2.9l-4.8,1.29c-.82.22-1.45.86-1.67,1.67l-1.29,4.8c-.34,1.26-1.64,2.01-2.9,1.67l-4.79-1.29c-.82-.22-1.69.01-2.29.61l-3.5,3.5c-.93.93-2.42.93-3.35,0l-3.5-3.5c-.6-.6-1.47-.83-2.29-.61l-4.79,1.29c-1.26.34-2.56-.41-2.9-1.67l-1.29-4.8c-.22-.82-.86-1.45-1.67-1.67l-4.8-1.29c-1.26-.34-2.01-1.64-1.67-2.9l1.29-4.79c.22-.82-.01-1.69-.61-2.29l-3.5-3.5c-.93-.93-.93-2.42,0-3.35l3.5-3.5c.6-.6.83-1.47.61-2.29l-1.29-4.79c-.34-1.26.41-2.56,1.67-2.9l4.8-1.29c.82-.22,1.45-.86,1.67-1.67l1.29-4.8c.34-1.26,1.64-2.01,2.9-1.67l4.79,1.29c.82.22,1.69-.01,2.29-.61l3.5-3.5c.93-.93,2.42-.93,3.35,0Z"/>
  <g id="Stroke_3-85" data-name="Stroke 3-85">
    <path class="cls-1" d="m36.69,48.55c-1.23,0-2.45-.47-3.39-1.4l-4.95-4.95c-.95-.94-.95-2.48,0-3.43s2.48-.95,3.43,0l4.95,4.95,11.49-11.57c.94-.94,2.48-.95,3.43,0,.95.95.95,2.48,0,3.43l-11.57,11.57c-.93.94-2.16,1.4-3.39,1.4Z"/>
  </g>
</svg>