<?xml version="1.0" encoding="UTF-8"?>
<svg id="Layer_1" data-name="Layer 1" xmlns="http://www.w3.org/2000/svg" viewBox="0 0 80 80">
  <defs>
    <style>
      .cls-1 {
        fill: #626875;
      }
    </style>
  </defs>
  <path class="cls-1" d="m12.64,68.34c-.35,0-.7-.09-1.05-.26-.63-.31-1.21-.89-2.36-2.05l-1.68-1.68c-1.15-1.15-1.73-1.73-2.05-2.36-.35-.7-.35-1.41,0-2.11.31-.63.89-1.21,2.05-2.36l28.76-28.76s0,0,0,0c0,0,0,0,0,0l9.21-9.21c1.16-1.15,1.73-1.73,2.36-2.05.68-.34,1.4-.34,2.08-.02.95.33,1.59.99,2.41,2.09l1.65,1.65c1.15,1.15,1.73,1.73,2.05,2.36.35.7.35,1.41,0,2.11-.32.63-.89,1.21-2.05,2.36l-9.2,9.21h-.01s0,.02-.01.02l-28.75,28.75c-1.15,1.15-1.73,1.73-2.36,2.05-.35.17-.7.26-1.05.26Zm24.02-38.55l-28.42,28.42c-1.08,1.08-1.62,1.62-1.86,2.11-.21.42-.21.82,0,1.24.24.49.78,1.03,1.86,2.11l1.68,1.68c1.08,1.08,1.62,1.62,2.11,1.86.42.21.82.21,1.24,0,.49-.24,1.03-.79,2.11-1.86l28.42-28.42-7.13-7.14Zm.68-.68l7.13,7.14,8.87-8.87c1.08-1.08,1.62-1.62,1.86-2.11.21-.42.21-.82,0-1.24-.24-.49-.79-1.03-1.86-2.11l-1.72-1.73c-.85-1.13-1.33-1.56-2-1.79l-.06-.03c-.42-.21-.82-.21-1.24,0-.49.24-1.03.78-2.1,1.86l-8.88,8.88Zm16.07,30.02c-.27,0-.48-.22-.48-.48v-5.1h-5.1c-.27,0-.48-.22-.48-.48s.22-.48.48-.48h5.1v-5.1c0-.27.22-.48.48-.48s.48.22.48.48v5.1h5.1c.27,0,.48.22.48.48s-.22.48-.48.48h-5.1v5.1c0,.27-.22.48-.48.48Zm15.27-32.81c-.27,0-.48-.22-.48-.48v-5.1h-5.1c-.27,0-.48-.22-.48-.48s.22-.48.48-.48h5.1v-5.1c0-.27.22-.48.48-.48s.48.22.48.48v5.1h5.1c.27,0,.48.22.48.48s-.22.48-.48.48h-5.1v5.1c0,.27-.22.48-.48.48Zm-43.2-2.52c-.27,0-.48-.22-.48-.48v-5.1h-5.1c-.27,0-.48-.22-.48-.48s.22-.48.48-.48h5.1v-5.1c0-.27.22-.48.48-.48s.48.22.48.48v5.1h5.1c.27,0,.48.22.48.48s-.22.48-.48.48h-5.1v5.1c0,.27-.22.48-.48.48Z"/>
</svg>