<?xml version="1.0" encoding="UTF-8"?>
<svg id="Layer_1" data-name="Layer 1" xmlns="http://www.w3.org/2000/svg" viewBox="0 0 80 80">
  <defs>
    <style>
      .cls-1 {
        fill: #626875;
      }
    </style>
  </defs>
  <path class="cls-1" d="m34.57,70.2h-.04c-1.56-.1-2.65-.79-3.25-2.06-.67-1.4-.36-3.05.74-4,1.36-1.18,2.53-2.11,3.68-2.93.54-.39,1.19-.6,1.87-.6,1.09,0,2.14.53,2.81,1.41,1.11,1.45.96,3.5-.34,4.65-1.12.99-2.34,1.93-3.53,2.83l-.12.09c-.45.34-.93.45-1.32.55l-.5.07Zm3-8.67c-.49,0-.95.15-1.34.43-1.13.81-2.28,1.72-3.62,2.88-.79.68-1,1.88-.51,2.91.45.96,1.23,1.44,2.43,1.53l.36-.05c.29-.07.64-.15.93-.37l.12-.09c1.17-.9,2.38-1.82,3.48-2.79.94-.83,1.04-2.33.22-3.4-.5-.66-1.28-1.05-2.08-1.05Z"/>
  <path class="cls-1" d="m30.05,65.61c-.27,0-.54-.03-.78-.1-1.1-.28-1.89-.95-2.34-1.97-.66-1.49-.35-3.01.81-3.97,2.13-1.78,4.11-3.35,6.05-4.82.55-.41,1.2-.63,1.89-.63h0c1.08,0,2.14.53,2.82,1.41,1.14,1.47.95,3.59-.41,4.73-1.97,1.65-4,3.24-5.9,4.73-.19.15-.5.29-.95.43-.4.13-.8.19-1.18.19Zm5.62-10.57c-.49,0-.95.15-1.34.44-1.93,1.46-3.9,3.02-6.01,4.79-.83.69-1.04,1.8-.56,2.89.34.77.9,1.24,1.73,1.45.43.11.94.08,1.46-.08.47-.15.62-.25.66-.28,1.9-1.48,3.91-3.06,5.88-4.71.99-.82,1.11-2.38.27-3.46-.51-.66-1.29-1.05-2.09-1.05Z"/>
  <path class="cls-1" d="m26.23,61.16c-.05,0-.11,0-.16,0h-.17c-1.54-.22-2.74-1.12-3.22-2.41-.55-1.45-.13-2.98,1.07-3.98.8-.67,1.6-1.3,2.55-2.06l2.32-1.85c.97-.78,1.95-1.56,2.93-2.34.77-.6,1.62-.92,2.48-.92,1.04,0,1.99.47,2.68,1.31.63.79.9,1.76.74,2.73-.15.91-.67,1.77-1.46,2.41-2.83,2.27-5.18,4.16-7.57,6.03-.17.14-.51.38-1,.71-.35.24-.77.37-1.19.37Zm7.81-12.64c-.65,0-1.31.25-1.91.72-.98.77-1.95,1.55-2.93,2.33l-2.32,1.85c-.95.75-1.74,1.38-2.54,2.04-.9.75-1.2,1.88-.8,2.96.36.97,1.28,1.64,2.46,1.8h.14c.27.03.54-.04.76-.19.33-.23.75-.51.95-.67,2.38-1.87,4.73-3.75,7.56-6.02.62-.5,1.02-1.15,1.13-1.84.12-.71-.08-1.43-.55-2.01-.51-.63-1.2-.97-1.96-.97Z"/>
  <path class="cls-1" d="m22.2,56.03c-.19,0-.38-.02-.57-.05-1.25-.23-2.12-.92-2.6-2.05-.68-1.59-.41-3.21.7-4.13,2.16-1.81,4.02-3.31,5.85-4.73.83-.64,1.56-.7,2.23-.7,1.36,0,2.36,1.05,2.73,1.5,1.21,1.48,1.05,3.65-.35,4.82-1.99,1.66-3.93,3.18-5.9,4.72-.22.17-.6.33-1.15.49-.31.09-.62.13-.93.13Zm5.61-10.74c-.58,0-1.07.04-1.67.5-1.82,1.41-3.67,2.91-5.83,4.71-.78.65-.96,1.86-.44,3.07.36.84.99,1.33,1.93,1.51.34.06.71.04,1.08-.06.6-.17.79-.29.83-.33,1.97-1.53,3.9-3.05,5.88-4.7,1.02-.85,1.13-2.44.23-3.54-.28-.35-1.05-1.16-2.02-1.16Z"/>
  <path class="cls-1" d="m61.22,50.13c-.25,0-.5-.09-.7-.24l-2.26-1.8c-1.24-.99-2.53-2.01-3.82-3-1.56-1.18-3.14-2.35-4.63-3.44l-.63-.46c-.83-.61-1.67-1.23-2.49-1.85-2.89-2.15-5.95-2.81-9.47-2.02-1.64.37-3.22.33-4.66-.11-1.98-.61-3.26-1.94-3.82-3.95-.42-1.53.31-2.82,1.86-3.28.99-.3,2.01-.6,3.1-.72,2.81-.31,5.36-.53,7.8-.67.12-.01.26-.02.39-.02.75,0,1.57.15,2.61.48,1.63.52,3.38,1.13,5.5,1.93.88.33,1.64.37,2.49.12.84-.24,1.68-.48,2.53-.72l2.52-.7,9.27,16.4-4.89,3.8c-.2.15-.44.24-.69.24Zm-21.26-14.04c2.61,0,4.99.83,7.27,2.52.83.62,1.66,1.23,2.49,1.84l.63.46c1.49,1.09,3.07,2.26,4.64,3.44,1.3.99,2.59,2.02,3.84,3.01l2.26,1.8c.07.06.18.06.25,0l4.27-3.31-8.53-15.08-1.83.51c-.85.24-1.69.47-2.52.71-1.04.3-2.01.26-3.07-.15-2.1-.79-3.83-1.4-5.45-1.91-1.1-.35-1.93-.48-2.66-.42-2.44.14-4.97.35-7.76.66-1.01.11-1.99.41-2.94.69-1.07.32-1.52,1.11-1.23,2.16.47,1.69,1.54,2.8,3.2,3.31,1.28.39,2.7.42,4.19.09,1.01-.23,2.01-.34,2.96-.34Z"/>
  <path class="cls-1" d="m68.86,49.32c-.85,0-1.55-.47-2.07-1.4-3.7-6.55-7.41-13.09-11.1-19.64-.82-1.44-.48-2.64.96-3.46,1.12-.63,2.24-1.25,3.36-1.87.45-.25.94-.48,1.51-.48,1.25,0,1.85,1.04,2.1,1.48.79,1.4,10.31,18.22,11.06,19.55.82,1.47.49,2.67-.93,3.47-1.26.71-2.41,1.35-3.5,1.94-.51.28-.94.4-1.38.4Zm-7.34-25.93c-.34,0-.68.14-1.07.36-1.12.62-2.24,1.24-3.36,1.87-1.01.57-1.18,1.19-.61,2.2,3.7,6.55,7.4,13.09,11.1,19.64.23.4.61.93,1.28.93.28,0,.57-.09.94-.29,1.1-.59,2.24-1.22,3.49-1.93.98-.55,1.15-1.2.58-2.22-.75-1.34-10.26-18.15-11.05-19.55-.28-.49-.64-1.02-1.3-1.02Z"/>
  <path class="cls-1" d="m19.86,50.66c-.1,0-.2-.03-.29-.1l-6.32-5.13,9.28-16.43,2.3.67c.96.28,2.31.68,3.25.97,1.09.34,1.34.75,1.45,1.45.04.25-.13.49-.38.52-.25.04-.49-.13-.52-.38-.06-.36-.07-.48-.81-.71-.93-.29-2.27-.69-3.23-.97l-1.6-.47-8.54,15.12,5.71,4.64c.2.16.23.45.07.65-.09.11-.22.17-.36.17Z"/>
  <path class="cls-1" d="m60.19,57.24c-.92,0-1.77-.3-2.32-.65-.48-.3-.9-.66-1.31-1.02-.18-.16-.37-.31-.56-.47l-.23-.19c-.52-.42-1.04-.83-1.57-1.24-.22-.17-.32-.21-.38-.22-.25-.06-.4-.3-.35-.55.06-.25.3-.41.55-.35.24.05.46.17.74.39.53.41,1.05.83,1.58,1.25l.24.19c.2.16.39.32.58.48.41.35.79.67,1.21.94.79.5,2.41.89,3.61-.13.87-.73,1.2-1.98.8-3.05-.49-1.33-1.49-2.14-2.09-2.62l-.18-.14c-.2-.16-.23-.45-.06-.65.16-.2.45-.23.65-.06l.17.14c.67.54,1.8,1.44,2.38,3.01.53,1.43.09,3.1-1.07,4.07-.74.62-1.59.85-2.38.85Z"/>
  <path class="cls-1" d="m55.85,62.08c-.78,0-1.53-.27-2.18-.78-.76-.6-1.52-1.2-2.34-1.86l-1.48-1.18c-.4-.32-.59-.35-.59-.35-.25,0-.45-.21-.45-.46s.22-.46.47-.46c.2,0,.57.1,1.14.55l1.48,1.18c.81.65,1.57,1.25,2.33,1.85.78.61,1.73.75,2.63.38.91-.37,1.54-1.25,1.62-2.22.07-.95-.31-1.74-1.18-2.42-1.18-.93-2.43-1.92-3.67-2.94-.2-.16-.22-.45-.06-.65.16-.2.45-.22.65-.06,1.24,1.02,2.49,2,3.66,2.93,1.11.87,1.62,1.96,1.53,3.21-.1,1.32-.96,2.49-2.19,3-.45.18-.91.28-1.37.28Z"/>
  <path class="cls-1" d="m52.19,67.72c-1.04,0-2.15-.39-3.03-1.08-.6-.47-1.2-.95-1.82-1.45l-.48-.39c-.59-.48-1.19-.95-1.79-1.42l-.04-.03c-.23-.03-.41-.22-.41-.46,0-.25.21-.46.46-.46.19,0,.38.07.57.23.6.47,1.19.95,1.79,1.42l.48.39c.62.5,1.22.98,1.82,1.45.88.7,2.04,1.02,3.02.83.75-.14,1.32-.55,1.72-1.23.97-1.67.46-3.18-1.66-4.91-1.48-1.2-2.71-2.11-3.76-2.81-.21-.14-.27-.42-.13-.64.14-.21.42-.27.64-.13,1.08.71,2.34,1.64,3.84,2.86.91.74,3.68,2.99,1.88,6.08-.53.9-1.34,1.48-2.34,1.67-.24.04-.48.07-.72.07Zm-7.12-4.38h0,0Z"/>
  <path class="cls-1" d="m45.57,71.4c-.94,0-1.93-.32-2.81-.96-.12-.09-.24-.19-.39-.32-.09-.08-.16-.13-.22-.18l-.12-.09c-1.77-1.37-2.04-2.59-2.26-3.57-.06-.25.1-.49.35-.55.25-.06.49.1.55.35.21.92.42,1.88,1.93,3.05l.11.08c.08.06.15.12.23.18.17.15.27.23.38.31,1.5,1.08,3.34,1.04,4.3-.11,1.41-1.68.81-3.49-.41-4.53-.1-.09-.53-.41-.95-.72-.75-.55-1.29-.96-1.47-1.12-.19-.17-.2-.46-.03-.65.17-.19.46-.2.65-.03.17.15.85.66,1.41,1.07.54.4.88.65,1,.75,1.51,1.29,2.32,3.66.52,5.82-.67.81-1.66,1.22-2.73,1.22Z"/>
  <path class="cls-1" d="m11.19,48.47c-.31,0-.6-.07-.88-.2-.3-.15-.56-.28-.62-.31-1.12-.62-2.24-1.24-3.36-1.86-.53-.3-1.16-.74-1.38-1.53-.22-.79.1-1.51.37-1.98,3.7-6.54,7.39-13.09,11.1-19.63.2-.35.8-1.41,2.06-1.41.54,0,1,.21,1.38.41,1.11.6,2.25,1.23,3.49,1.93,1.22.69,1.65,2.21.97,3.47-2.88,5.39-5.4,9.75-7.84,13.96l-.05.09c-1.08,1.86-2.14,3.7-3.21,5.58-.06.1-.17.29-.3.51-.36.6-1.02.98-1.72.98Zm7.29-26c-.64,0-1.01.51-1.26.95-3.7,6.54-7.4,13.09-11.1,19.63-.21.37-.41.82-.28,1.28.13.46.53.74.94.98,1.12.62,2.23,1.24,3.35,1.86.05.03.29.15.58.29.49.24,1.13.05,1.4-.42.12-.21.23-.39.29-.49,1.07-1.89,2.14-3.73,3.22-5.59l.05-.09c2.44-4.21,4.96-8.56,7.83-13.93.44-.82.16-1.8-.62-2.24-1.23-.7-2.37-1.32-3.47-1.92-.29-.16-.6-.3-.94-.3Z"/>
  <path class="cls-1" d="m40.23,17.43c-.25,0-.46-.21-.46-.46v-7.91c0-.25.21-.46.46-.46s.46.21.46.46v7.91c0,.25-.21.46-.46.46Z"/>
  <path class="cls-1" d="m49.67,20.23c-.12,0-.24-.04-.32-.13-.18-.18-.18-.47,0-.65l5.59-5.59c.18-.18.47-.18.65,0s.18.47,0,.65l-5.59,5.59c-.09.09-.21.13-.32.13Z"/>
  <path class="cls-1" d="m30.9,20.23c-.12,0-.24-.04-.32-.13l-5.59-5.59c-.18-.18-.18-.47,0-.65s.47-.18.65,0l5.59,5.59c.18.18.18.47,0,.65-.09.09-.21.13-.32.13Z"/>
</svg>