<?xml version="1.0" encoding="UTF-8"?>
<svg id="Layer_1" data-name="Layer 1" xmlns="http://www.w3.org/2000/svg" viewBox="0 0 80 80">
  <defs>
    <style>
      .cls-1 {
        fill: #626875;
      }
    </style>
  </defs>
  <path class="cls-1" d="m10.32,70.19c-.13,0-.26-.05-.36-.15-.2-.2-.2-.52,0-.72l18.9-18.9c-4.14-4.32-6.68-10.17-6.68-16.6,0-13.46,10.55-24.01,24.01-24.01s24.01,10.77,24.01,24.01-10.77,24.01-24.01,24.01c-6.44,0-12.29-2.55-16.61-6.68l-18.9,18.9c-.1.1-.23.15-.36.15Zm19.91-19.83c4.14,3.99,9.76,6.45,15.95,6.45,12.68,0,22.99-10.31,22.99-22.99s-10.31-22.99-22.99-22.99-22.99,10.1-22.99,22.99c0,6.19,2.46,11.81,6.45,15.95.16-.03.33.02.45.14.12.12.17.29.14.45Zm1.26-16.03c-.28,0-.51-.23-.51-.51,0-8.52,6.67-15.2,15.2-15.2.28,0,.51.23.51.51s-.23.51-.51.51c-7.95,0-14.18,6.23-14.18,14.18,0,.28-.23.51-.51.51Z"/>
</svg>