<?xml version="1.0" encoding="UTF-8"?>
<svg id="Layer_1" data-name="Layer 1" xmlns="http://www.w3.org/2000/svg" viewBox="0 0 80 80">
  <defs>
    <style>
      .cls-1 {
        fill: #626875;
      }
    </style>
  </defs>
  <path class="cls-1" d="m56.02,70.52H23.98c-4.09,0-5.79,0-7.22-.72-1.42-.71-2.51-1.8-3.22-3.22s-.72-3.49-.72-7.22V20.64c0-3.73,0-5.79.72-7.22s1.79-2.51,3.22-3.22c1.44-.72,3.49-.72,7.22-.72h32.04c3.73,0,5.79,0,7.22.72,1.42.71,2.51,1.8,3.22,3.22s.72,3.49.72,7.22v38.72c0,3.73,0,5.79-.72,7.22-.71,1.42-1.79,2.51-3.22,3.22-1.44.72-3.49.72-7.22.72ZM23.98,10.44c-3.59,0-5.56,0-6.79.62s-2.17,1.56-2.79,2.79-.62,3.21-.62,6.79v38.72c0,3.59,0,5.56.62,6.79.62,1.23,1.56,2.17,2.79,2.79,1.23.62,2.86.62,6.79.62h32.04c3.59,0,5.56,0,6.8-.62,1.23-.62,2.17-1.56,2.79-2.79s.62-3.21.62-6.79V20.64c0-3.59,0-5.56-.62-6.79-.62-1.23-1.55-2.17-2.79-2.79-1.23-.62-3.21-.62-6.8-.62H23.98Zm6.01,46.29c-.39,0-.79-.15-1.09-.45l-2.59-2.59c-.19-.19-.19-.49,0-.68s.49-.19.68,0l2.59,2.59c.23.23.59.23.82,0l5.93-5.93c.19-.19.49-.19.68,0s.19.49,0,.68l-5.93,5.93c-.3.3-.69.45-1.09.45Zm23.36-6.24h-3.34c-.27,0-.48-.22-.48-.48s.22-.48.48-.48h3.34c.27,0,.48.22.48.48s-.22.48-.48.48Zm0-13.35h-26.7c-.27,0-.48-.22-.48-.48s.22-.48.48-.48h26.7c.27,0,.48.22.48.48s-.22.48-.48.48Zm-13.35-13.35h-13.35c-.27,0-.48-.22-.48-.48s.22-.48.48-.48h13.35c.27,0,.48.22.48.48s-.22.48-.48.48Z"/>
</svg>