<?xml version="1.0" encoding="UTF-8"?>
<svg id="Layer_1" data-name="Layer 1" xmlns="http://www.w3.org/2000/svg" viewBox="0 0 80 80">
  <defs>
    <style>
      .cls-1 {
        fill: #626875;
      }
    </style>
  </defs>
  <g id="Iconly_Light_Send" data-name="Iconly Light Send">
    <g id="Send-4">
      <g id="Send-5">
        <path class="cls-1" d="m50.77,65.51c-.36,0-.73-.05-1.1-.16-.95-.28-1.76-.9-2.27-1.75l-11.58-19.19-19.22-11.83c-.9-.56-1.54-1.43-1.78-2.46-.25-1.03-.08-2.1.48-3,.52-.84,1.32-1.45,2.26-1.73l45.66-13.28c2.1-.6,4.29.63,4.88,2.72.21.73.2,1.5-.02,2.22l-13.56,45.62c-.5,1.71-2.07,2.83-3.77,2.83Zm-13.9-21.38l11.42,18.93c.38.63.97,1.08,1.67,1.29,1.53.44,3.13-.44,3.58-1.96l13.56-45.63c.16-.54.17-1.1.01-1.64-.44-1.54-2.05-2.44-3.59-2l-45.66,13.28c-.69.2-1.29.66-1.67,1.27-.41.67-.54,1.45-.35,2.21.18.76.65,1.4,1.31,1.81l18.99,11.69,16.23-16.34c.2-.2.53-.2.74,0,.2.2.21.53,0,.74l-16.24,16.35Z"/>
      </g>
    </g>
  </g>
  <path class="cls-1" d="m21.73,58.55c-.13,0-.27-.05-.37-.15-.2-.2-.2-.53,0-.74l9.1-9.1c.2-.2.53-.2.74,0s.2.53,0,.74l-9.1,9.1c-.1.1-.24.15-.37.15Z"/>
  <path class="cls-1" d="m12.25,55.84c-.13,0-.27-.05-.37-.15-.2-.2-.2-.53,0-.74l9.1-9.1c.2-.2.53-.2.74,0s.2.53,0,.74l-9.1,9.1c-.1.1-.24.15-.37.15Z"/>
  <path class="cls-1" d="m24.44,68.04c-.13,0-.27-.05-.37-.15-.2-.2-.2-.53,0-.74l9.1-9.1c.2-.2.53-.2.74,0s.2.53,0,.74l-9.1,9.1c-.1.1-.24.15-.37.15Z"/>
</svg>