<?xml version="1.0" encoding="utf-8"?>
<!-- Generator: Adobe Illustrator 27.1.1, SVG Export Plug-In . SVG Version: 6.00 Build 0)  -->
<svg version="1.1" id="Layer_1" xmlns="http://www.w3.org/2000/svg" xmlns:xlink="http://www.w3.org/1999/xlink" x="0px" y="0px"
	 viewBox="0 0 80 80" style="enable-background:new 0 0 80 80;" xml:space="preserve">
<style type="text/css">
	.st0{fill:none;stroke:#626875;stroke-linecap:round;stroke-linejoin:round;stroke-miterlimit:10;}
</style>
<g id="Iconly_Light_Chart_1_" transform="translate(288 736.904)">
	<g id="Chart-4_1_" transform="translate(2 2)">
		<path id="Line_182_1_" class="st0" d="M-242.3-706.3v5.8"/>
		<path id="Line_183_1_" class="st0" d="M-238.3-709.1v8.6"/>
		<path id="Line_184_1_" class="st0" d="M-234.4-703.2v2.7"/>
		<path id="Path-19_1_" class="st0" d="M-234.4-713.3h-8c-2.8,0-4.5,2-4.5,4.7v7.5c0,2.8,1.7,4.7,4.5,4.7h8c2.8,0,4.5-2,4.5-4.7
			v-7.5C-229.8-711.3-231.6-713.3-234.4-713.3z"/>
	</g>
</g>
<g>
	<rect x="33.9" y="55.3" class="st0" width="13.6" height="9"/>
	<line class="st0" x1="28.7" y1="64.3" x2="53.2" y2="64.3"/>
	<line class="st0" x1="16.3" y1="47.7" x2="65.4" y2="47.7"/>
	<path class="st0" d="M60.7,18.7H21.1c-2.6,0-4.8,2.1-4.8,4.8v27c0,2.6,2.1,4.8,4.8,4.8h39.6c2.6,0,4.8-2.1,4.8-4.8v-27
		C65.4,20.9,63.3,18.7,60.7,18.7z"/>
</g>
<g id="Iconly_Light_Graph_1_" transform="translate(144 688.904)">
	<g id="Graph-4_1_" transform="translate(2 2)">
		<path id="Path_33948_1_" class="st0" d="M-107.9-658.9c-0.5-3.2-3.3-5.6-6.5-5.7c-0.3,0-0.6,0.2-0.6,0.6c0,0,0,0,0,0l0,0v0.1
			l0.4,5.5c0,0.4,0.3,0.7,0.7,0.6l5.5-0.4C-108.1-658.3-107.9-658.6-107.9-658.9L-107.9-658.9z"/>
		<path id="Path_33949_1_" class="st0" d="M-118.3-661.4c0.4-0.1,0.7,0.1,0.9,0.4c0,0.1,0.1,0.2,0.1,0.2c0.1,1.1,0.2,3.4,0.3,4.7
			c0,0.5,0.4,0.8,0.9,0.8c0,0,0,0,0,0l0,0l4.6-0.3c0.4,0,0.8,0.3,0.8,0.7c0,0,0,0,0,0l0,0c-0.2,3.5-3.3,6.1-6.7,5.9
			c-2.1-0.1-4.1-1.4-5.1-3.3c-0.4-0.7-0.7-1.5-0.8-2.3c0-0.2-0.1-0.5,0-0.8C-123.3-658.2-121.2-660.8-118.3-661.4"/>
	</g>
</g>
</svg>
