<?xml version="1.0" encoding="UTF-8"?>
<svg id="Layer_1" data-name="Layer 1" xmlns="http://www.w3.org/2000/svg" viewBox="0 0 80 80">
  <defs>
    <style>
      .cls-1 {
        fill: #626875;
      }
    </style>
  </defs>
  <path class="cls-1" d="m40.6,72.1h-1.13c-.11,0-.22-.03-.32-.08-.76-.38-1.12-.8-1.69-1.66l-22.57-30.19s-.05-.07-.07-.11c-.1-.19-.19-.35-.28-.48-.19-.3-.36-.59-.36-.97v-.85c0-.38.18-.67.36-.97.08-.13.18-.29.28-.48.02-.04.04-.08.07-.11l11.02-14.69s.04-.05.07-.08c.05-.05.08-.11.13-.18.08-.14.26-.42.59-.54.27-.25.47-.34.92-.34h24.86c.37,0,.69.18.89.33.36.12.54.41.62.55.04.07.08.13.13.18.02.02.05.05.07.08l11.02,14.69s.05.07.07.11c.1.19.19.35.28.48.19.3.36.59.36.96.17.13.28.34.28.57,0,.25-.13.47-.33.6-.06.23-.19.44-.32.65-.08.13-.18.29-.28.48-.02.04-.04.08-.07.11l-22.58,30.21c-.57.85-.93,1.27-1.68,1.64-.1.05-.21.08-.32.08Zm-24.52-32.74l22.56,30.17c.23.34.39.57.54.74l-10.67-31.22h-12.6c.06.09.11.2.17.31Zm13.95-.31l10.29,30.1,10.29-30.1h-20.58Zm22.1,0l-10.19,29.81,22.05-29.5c.06-.11.12-.22.17-.31h-12.03Zm-.13-1.44h12.34s-.02-.04-.03-.06c-.09-.15-.2-.32-.31-.54l-10.95-14.6c-.13-.13-.21-.26-.27-.36-.09-.04-.18-.09-.25-.16-.02-.02-.07-.06-.1-.07h-10.94l10.53,15.79Zm-21.64,0h19.9l-9.95-14.93-9.95,14.93Zm-14.63,0h12.9l10.53-15.79h-11.54s-.04.04-.07.07c-.07.07-.16.13-.25.16-.06.1-.15.23-.27.36l-10.95,14.6c-.11.21-.22.39-.31.54-.01.02-.02.04-.03.06Z"/>
  <path class="cls-1" d="m60.54,22.1c-.29,0-.56-.18-.67-.45l-1.62-4c-.18-.44-.27-.65-.36-.83-.06-.06-.11-.13-.16-.19-.04-.05-.1-.12-.12-.14-.2-.1-.39-.2-.91-.4l-4.01-1.62c-.27-.11-.45-.37-.45-.67s.18-.56.45-.67l4-1.62c.44-.18.65-.27.83-.36.06-.06.13-.11.18-.16.05-.04.12-.1.14-.12.1-.19.19-.39.4-.91l1.62-4.01c.11-.27.37-.45.67-.45s.56.18.67.45l1.62,4c.18.44.27.65.36.83.06.06.11.13.16.19.04.05.1.12.12.14.2.1.39.2.91.4l4.01,1.62c.27.11.45.37.45.67s-.18.56-.45.67l-4,1.62c-.44.18-.65.27-.83.36-.06.06-.13.11-.18.16-.05.04-.12.1-.14.12-.1.2-.2.4-.4.91l-1.62,4.01c-.11.27-.37.45-.67.45Zm-5.66-8.3l2.36.96c.57.23.8.34,1.03.46.28.14.44.34.58.5.05.06.09.11.15.17.05.05.1.12.13.19.11.22.23.45.46,1.03l.95,2.35.96-2.36c.22-.56.34-.8.45-1.02.14-.28.34-.45.51-.58.06-.05.11-.09.17-.15.05-.05.12-.1.19-.13.23-.11.46-.23,1.03-.46l2.35-.95-2.36-.96c-.56-.23-.8-.34-1.02-.45-.28-.14-.45-.34-.58-.5-.05-.06-.09-.11-.15-.17-.05-.05-.1-.12-.14-.19-.11-.23-.23-.46-.46-1.03l-.95-2.35-.96,2.36c-.23.57-.34.8-.46,1.03-.14.28-.34.44-.5.58-.06.05-.11.09-.17.15-.05.06-.12.1-.19.14-.23.12-.46.23-1.03.46l-2.35.95Z"/>
  <path class="cls-1" d="m17.23,70.97c-.29,0-.56-.18-.67-.45l-1.62-4c-.18-.44-.27-.65-.36-.83-.06-.06-.11-.13-.16-.18-.04-.05-.1-.12-.12-.14-.19-.1-.39-.19-.91-.4l-4.01-1.62c-.27-.11-.45-.37-.45-.67s.18-.56.45-.67l4-1.62c.44-.18.65-.27.83-.36.06-.06.13-.11.18-.16.05-.04.12-.1.14-.12.1-.2.2-.39.4-.91l1.62-4.01c.11-.27.37-.45.67-.45s.56.18.67.45l1.62,4c.18.44.27.65.36.83.06.06.11.13.16.19.04.05.1.12.12.14.2.1.39.2.91.4l4.01,1.62c.27.11.45.37.45.67s-.18.56-.45.67l-4,1.62c-.44.18-.65.27-.83.36-.06.06-.13.11-.18.16-.05.04-.12.1-.14.12-.1.2-.2.39-.4.91l-1.62,4.01c-.11.27-.37.45-.67.45Zm-5.66-8.3l2.36.96c.57.23.8.34,1.03.46.28.14.44.34.58.5.05.06.09.11.15.17.06.05.1.12.14.19.12.23.23.46.46,1.03l.95,2.35.96-2.36c.23-.57.34-.8.46-1.03.14-.28.34-.44.5-.58.06-.05.11-.09.17-.15.05-.05.12-.1.19-.14.22-.11.46-.23,1.03-.46l2.35-.95-2.36-.96c-.57-.23-.8-.34-1.03-.46-.28-.14-.44-.34-.58-.5-.05-.06-.09-.11-.15-.17-.05-.05-.1-.12-.13-.19-.11-.22-.23-.46-.46-1.03l-.95-2.35-.96,2.36c-.23.57-.34.8-.46,1.03-.14.28-.34.44-.5.58-.06.05-.11.09-.17.15-.05.05-.12.1-.19.13-.23.11-.46.23-1.03.46l-2.35.95Z"/>
</svg>