<?xml version="1.0" encoding="UTF-8"?>
<svg id="Layer_1" data-name="Layer 1" xmlns="http://www.w3.org/2000/svg" viewBox="0 0 80 80">
  <defs>
    <style>
      .cls-1 {
        fill: #626875;
      }
    </style>
  </defs>
  <g id="Iconly_Light_Activity" data-name="Iconly Light Activity">
    <g id="Activity-4">
      <g id="Ellipse_741" data-name="Ellipse 741">
        <path class="cls-1" d="m62.13,24.06c-3.46,0-6.28-2.82-6.28-6.28s2.82-6.28,6.28-6.28,6.28,2.82,6.28,6.28-2.82,6.28-6.28,6.28Zm0-11.12c-2.67,0-4.84,2.17-4.84,4.84s2.17,4.84,4.84,4.84,4.84-2.17,4.84-4.84-2.17-4.84-4.84-4.84Z"/>
      </g>
      <g id="Path-13">
        <path class="cls-1" d="m51.31,68.5h-24.89c-9.01,0-14.84-6.11-14.84-15.58v-23.39c0-9.33,5.96-15.6,14.84-15.6h21.03c.4,0,.72.32.72.72s-.32.72-.72.72h-21.03c-8.14,0-13.4,5.56-13.4,14.17v23.39c0,8.59,5.26,14.14,13.4,14.14h24.89c8.14,0,13.4-5.55,13.4-14.14v-20.37c0-.4.32-.72.72-.72s.72.32.72.72v20.37c0,9.32-5.96,15.58-14.84,15.58Z"/>
      </g>
    </g>
  </g>
  <path class="cls-1" d="m40.27,52.55c-.49,0-11.57-5.51-11.57-12.58,0-3.6,2.86-7.46,7.11-7.46,2.04,0,3.5.83,4.46,1.68,1.24-1.13,2.71-1.68,4.46-1.68,4.25,0,7.11,3.86,7.11,7.46,0,7.07-11.08,12.58-11.57,12.58Zm-4.46-18.61c-3.39,0-5.67,3.12-5.67,6.03,0,5.4,8.44,10.31,10.13,11.09,1.69-.78,10.13-5.69,10.13-11.09,0-2.91-2.28-6.03-5.67-6.03-2.1,0-3.25.99-3.93,1.74-.14.15-.33.24-.53.24h0c-.2,0-.4-.09-.53-.24-.72-.79-1.99-1.74-3.93-1.74Z"/>
</svg>