<?xml version="1.0" encoding="UTF-8"?>
<svg id="Layer_1" data-name="Layer 1" xmlns="http://www.w3.org/2000/svg" viewBox="0 0 80 80">
  <defs>
    <style>
      .cls-1 {
        fill: #626875;
      }
    </style>
  </defs>
  <path class="cls-1" d="m49.88,68.5h-19.77c-5.4,0-7.87,0-10.16-.98-2.03-1.02-3.37-2.35-4.37-4.35-1-2-1-4.74-1-10.2v-4.32c0-5.4,0-7.87.98-10.16,1.02-2.03,2.35-3.37,4.35-4.37,1.24-.62,2.42-.92,3.94-.99v-5.49c0-9.05,7.09-16.15,16.15-16.15,6.51,0,12.2,3.71,14.85,9.68.16.36,0,.77-.36.93-.36.16-.77,0-.93-.36-2.46-5.54-7.53-8.85-13.56-8.85-8.27,0-14.74,6.47-14.74,14.74v5.47h24.62c5.4,0,7.87,0,10.16.98,2.03,1.02,3.37,2.35,4.37,4.35,1,2,1,4.74,1,10.2v4.32c0,5.4,0,7.87-.98,10.16-1.02,2.03-2.35,3.37-4.35,4.37-2,1-4.74,1-10.2,1Zm-25.33-33.98c-1.64,0-2.8.25-4.01.85-1.71.85-2.85,1.99-3.7,3.7-.85,1.99-.85,4.37-.85,9.57v4.32c0,5.07,0,7.86.85,9.57.85,1.71,1.99,2.85,3.7,3.7,1.99.85,4.37.85,9.57.85h19.77c5.07,0,7.86,0,9.57-.85,1.71-.85,2.85-1.99,3.7-3.7.85-1.99.85-4.37.85-9.57v-4.32c0-5.07,0-7.86-.85-9.57-.85-1.71-1.99-2.85-3.7-3.7-1.99-.85-4.37-.85-9.57-.85h-25.33Zm15.44,20.08c-.39,0-.7-.31-.7-.7v-6.18c0-.39.31-.7.7-.7s.7.31.7.7v6.18c0,.39-.31.7-.7.7Z"/>
</svg>