<?xml version="1.0" encoding="utf-8"?>
<!-- Generator: Adobe Illustrator 27.1.1, SVG Export Plug-In . SVG Version: 6.00 Build 0)  -->
<svg version="1.1" id="Layer_1" xmlns="http://www.w3.org/2000/svg" xmlns:xlink="http://www.w3.org/1999/xlink" x="0px" y="0px"
	 viewBox="0 0 80 80" style="enable-background:new 0 0 80 80;" xml:space="preserve">
<style type="text/css">
	.st0{fill:none;stroke:#626875;stroke-linecap:round;stroke-linejoin:round;stroke-miterlimit:10;}
</style>
<g>
	<rect x="35.5" y="55.1" class="st0" width="13.5" height="9"/>
	<line class="st0" x1="30.3" y1="64.1" x2="54.7" y2="64.1"/>
	<line class="st0" x1="18" y1="47.6" x2="66.9" y2="47.6"/>
	<path class="st0" d="M62.1,18.7H22.7c-2.6,0-4.7,2.1-4.7,4.7v26.9c0,2.6,2.1,4.7,4.7,4.7h39.4c2.6,0,4.7-2.1,4.7-4.7V23.4
		C66.9,20.8,64.8,18.7,62.1,18.7z"/>
	<g id="Iconly_Light_Edit_1_" transform="translate(144 832.904)">
		<g id="Edit-4_1_" transform="translate(3.5 3.5)">
			<path id="Stroke_1-50_1_" class="st0" d="M-103.6-795.5h6.1"/>
			<path id="Stroke_3-46_1_" class="st0" d="M-104.4-809.8c0.7-0.8,1.8-0.9,2.6-0.3c0,0,0.1,0.1,0.1,0.1l1.3,1
				c0.9,0.5,1.1,1.7,0.6,2.5c0,0-0.1,0.1-0.1,0.1l-7.9,10.1c-0.3,0.3-0.7,0.5-1.1,0.5l-3.1,0l-0.7-3c-0.1-0.4,0-0.9,0.3-1.2
				L-104.4-809.8z"/>
			<path id="Stroke_5-31_1_" class="st0" d="M-105.9-807.9l4.6,3.6"/>
		</g>
	</g>
</g>
</svg>
