<?xml version="1.0" encoding="utf-8"?>
<!-- Generator: Adobe Illustrator 27.1.1, SVG Export Plug-In . SVG Version: 6.00 Build 0)  -->
<svg version="1.1" id="Layer_1" xmlns="http://www.w3.org/2000/svg" xmlns:xlink="http://www.w3.org/1999/xlink" x="0px" y="0px"
	 viewBox="0 0 80 80" style="enable-background:new 0 0 80 80;" xml:space="preserve">
<style type="text/css">
	.st0{fill:none;stroke:#626875;stroke-linecap:round;stroke-linejoin:round;stroke-miterlimit:10;}
</style>
<g id="Iconly_Light_Edit_Square_1_" transform="translate(192 832.904)">
	<g id="Edit_Square-4_1_" transform="translate(2 2)">
		<path id="Stroke_1-32_1_" class="st0" d="M-154.8-816.1h-9.1c-7.4,0-12.1,5.3-12.1,12.7v20.1c0,7.5,4.6,12.7,12.1,12.7h21.4
			c7.5,0,12.1-5.3,12.1-12.7v-9.8"/>
		<path id="Stroke_3-30_1_" class="st0" d="M-161.2-796.4l18.1-18.1c2.2-2.2,5.9-2.2,8.2,0l2.9,2.9c2.2,2.2,2.2,5.9,0,8.2l0,0
			l-18.2,18.2c-1,1-2.3,1.5-3.7,1.5h-9.1l0.2-9.2C-162.8-794.2-162.2-795.5-161.2-796.4z"/>
		<path id="Stroke_5-22_1_" class="st0" d="M-145.9-811.7l11.1,11"/>
	</g>
</g>
</svg>
