<?xml version="1.0" encoding="utf-8"?>
<!-- Generator: Adobe Illustrator 27.1.1, SVG Export Plug-In . SVG Version: 6.00 Build 0)  -->
<svg version="1.1" id="Layer_1" xmlns="http://www.w3.org/2000/svg" xmlns:xlink="http://www.w3.org/1999/xlink" x="0px" y="0px"
	 viewBox="0 0 80 80" style="enable-background:new 0 0 80 80;" xml:space="preserve">
<style type="text/css">
	.st0{fill:none;stroke:#626875;stroke-linecap:round;stroke-linejoin:round;stroke-miterlimit:10;}
</style>
<g>
	<path class="st0" d="M39.1,41.7l-5.7,3.2c-0.3,0.2-0.7,0-0.8-0.3l-2.4-9.8c0-0.1,0-0.3,0-0.4l0.9-1.7c0.1-0.1,0.3-0.2,0.4,0
		l7.5,8.7C39.4,41.3,39.3,41.6,39.1,41.7z"/>
	<path class="st0" d="M40.5,41.7l5.7,3.2c0.3,0.2,0.7,0,0.8-0.3l2.4-9.8c0-0.1,0-0.3,0-0.4l-0.9-1.7c-0.1-0.1-0.3-0.2-0.4,0
		l-7.5,8.7C40.2,41.3,40.3,41.6,40.5,41.7z"/>
	<path class="st0" d="M40.9,46.6H39c-0.1,0-0.2-0.1-0.2-0.2l-1.2-3.6c0-0.1,0-0.2,0.1-0.3l2-1.1c0.2-0.1,0.3-0.1,0.5,0l2,1.1
		c0.1,0.1,0.2,0.2,0.1,0.3l-1.1,3.5C41.1,46.6,41,46.6,40.9,46.6z"/>
	<path class="st0" d="M42.7,52.9l-1.5-6c0-0.2-0.2-0.3-0.4-0.3h-1.9c-0.2,0-0.3,0.1-0.4,0.3l-1.5,6c-0.1,0.7,0,1.4,0.3,2.1l2,3.2
		c0.2,0.4,0.9,0.4,1.1,0l2-3.2C42.7,54.4,42.9,53.7,42.7,52.9z"/>
	<circle class="st0" cx="39.9" cy="22.1" r="9.5"/>
	<path class="st0" d="M53.3,49.1h-4.7c-0.2,0-0.3,0.1-0.3,0.3v2.1c0,0.2,0.1,0.3,0.3,0.4l2.2,1.1c0.2,0.1,0.3,0.1,0.5,0l2.2-1.2
		c0.2-0.1,0.2-0.2,0.2-0.4v-2C53.6,49.2,53.5,49.1,53.3,49.1z"/>
	<path class="st0" d="M30.4,34.7l-6.2,3c-2.5,1.2-4.1,3.6-4.5,6.3l-1.3,11.5c-0.3,2.5,1.6,4.7,4.2,4.7h34.8c2.5,0,4.5-2.2,4.2-4.7
		l-1.3-11.5c-0.3-2.7-2-5.1-4.5-6.3l-6.2-3"/>
</g>
</svg>
