<?xml version="1.0" encoding="utf-8"?>
<!-- Generator: Adobe Illustrator 27.1.1, SVG Export Plug-In . SVG Version: 6.00 Build 0)  -->
<svg version="1.1" id="Layer_1" xmlns="http://www.w3.org/2000/svg" xmlns:xlink="http://www.w3.org/1999/xlink" x="0px" y="0px"
	 viewBox="0 0 80 80" style="enable-background:new 0 0 80 80;" xml:space="preserve">
<style type="text/css">
	.st0{fill:none;stroke:#626875;stroke-linecap:round;stroke-linejoin:round;stroke-miterlimit:10;}
</style>
<path class="st0" d="M32.7,39.7L37,44c0.6,0.6,1.6,0.6,2.2,0l9.7-9.7 M42.1,16.6l3.2,3.1c0.5,0.5,1.1,0.6,1.7,0.5l4.3-1.2
	c1-0.3,1.9,0.3,2.2,1.3l1.2,4.3c0.2,0.6,0.7,1.1,1.3,1.3l4.3,1.2c1,0.3,1.5,1.2,1.3,2.2l-1.2,4.3c-0.2,0.6,0,1.3,0.5,1.7l3.2,3.2
	c0.7,0.7,0.7,1.8,0,2.5l-3.2,3.2c-0.5,0.5-0.6,1.1-0.5,1.7l1.2,4.3c0.3,1-0.3,1.9-1.3,2.2l-4.3,1.2c-0.6,0.2-1.1,0.7-1.3,1.3
	L53.5,59c-0.3,1-1.2,1.5-2.2,1.3L47,59.1c-0.6-0.2-1.3,0-1.7,0.5l-3.2,3.2c-0.7,0.7-1.8,0.7-2.5,0l-3.2-3.2
	c-0.5-0.5-1.1-0.6-1.7-0.5l-4.3,1.2c-1,0.3-1.9-0.3-2.2-1.3L27,54.7c-0.2-0.6-0.6-1.1-1.3-1.3l-4.3-1.2c-1-0.3-1.5-1.2-1.3-2.2
	l1.2-4.3c0.2-0.6,0-1.3-0.5-1.7l-3.1-3.2c-0.7-0.7-0.7-1.8,0-2.5l3.1-3.2c0.5-0.5,0.6-1.1,0.5-1.7l-1.2-4.3c-0.3-1,0.3-1.9,1.3-2.2
	l4.3-1.2c0.6-0.2,1.1-0.6,1.3-1.3l1.2-4.3c0.3-1,1.2-1.5,2.2-1.3l4.3,1.2c0.6,0.2,1.3,0,1.7-0.5l3.2-3.1
	C40.3,15.9,41.4,15.9,42.1,16.6z"/>
</svg>
