<?xml version="1.0" encoding="utf-8"?>
<!-- Generator: Adobe Illustrator 27.1.1, SVG Export Plug-In . SVG Version: 6.00 Build 0)  -->
<svg version="1.1" id="Layer_1" xmlns="http://www.w3.org/2000/svg" xmlns:xlink="http://www.w3.org/1999/xlink" x="0px" y="0px"
	 viewBox="0 0 74 42" style="enable-background:new 0 0 74 42;" xml:space="preserve">
<style type="text/css">
	.st0{fill:#FFFFFF;}
</style>
<g>
	<g>
		<path class="st0" d="M11.05,29.65c4.4-0.07,7.9-3.74,7.9-8.14v0c0-0.08-0.06-0.14-0.14-0.14H17c-0.08,0-0.14,0.06-0.14,0.14v0.02
			c0,3.32-2.72,6.09-6.04,6.04c-3.22-0.06-5.83-2.69-5.83-5.93v0c0-0.14-0.12-0.26-0.26-0.26H3.16c-0.14,0-0.26,0.12-0.26,0.26v0
			C2.9,26.1,6.57,29.72,11.05,29.65z"/>
		<path class="st0" d="M1.79,20.61L1.79,20.61c0,0.08,0.06,0.14,0.14,0.14l1.81,0c0.08,0,0.14-0.06,0.14-0.14v-0.02
			c0-3.32,2.72-6.09,6.04-6.04c3.22,0.06,5.83,2.69,5.83,5.93l0,0c0,0.14,0.12,0.26,0.26,0.26l1.57,0c0.14,0,0.26-0.12,0.26-0.26v0
			c0-4.55-3.81-8.23-8.4-8.01C5.13,12.67,1.79,16.3,1.79,20.61z"/>
	</g>
	<g>
		<path class="st0" d="M70.56,18.57c0-0.49,0.38-0.86,0.9-0.86c0.52,0,0.9,0.37,0.9,0.86c0,0.49-0.38,0.86-0.9,0.86
			C70.94,19.44,70.56,19.07,70.56,18.57z M72.2,18.57c0-0.4-0.29-0.71-0.74-0.71c-0.44,0-0.74,0.3-0.74,0.71
			c0,0.4,0.3,0.71,0.74,0.71C71.91,19.28,72.2,18.97,72.2,18.57z M71.78,19.06c-0.05,0-0.08-0.02-0.1-0.06l-0.19-0.31h-0.08H71.3
			v0.3c0,0.05-0.03,0.08-0.07,0.08h-0.04c-0.05,0-0.07-0.03-0.07-0.08v-0.84c0-0.05,0.03-0.08,0.08-0.08h0.27
			c0.25,0,0.39,0.12,0.39,0.31c0,0.14-0.06,0.22-0.2,0.28L71.87,19c0,0.01,0.01,0.02,0.01,0.03c0,0.02-0.02,0.04-0.05,0.04H71.78z
			 M71.48,18.54c0.12-0.01,0.18-0.06,0.18-0.16c0-0.1-0.06-0.14-0.18-0.15H71.3v0.32H71.48z"/>
	</g>
	<path class="st0" d="M25.9,22.53l-0.41-1.48h-1.55l0.98,3.07c0.08,0.25,0.19,0.33,0.44,0.33h0.99c0.26,0,0.38-0.09,0.43-0.34
		l0.75-3.06h-1.29L25.9,22.53z"/>
	<path class="st0" d="M29.73,22.53l-0.35-1.48h-1.29l0.75,3.06c0.07,0.25,0.17,0.34,0.43,0.34h0.99c0.26,0,0.37-0.09,0.44-0.33
		l0.99-3.07h-1.56L29.73,22.53z"/>
	<path class="st0" d="M36.12,22.02h-1.9l0.38-0.98h-1.54l-1.23,3.01c-0.03,0.06-0.04,0.11-0.04,0.16c0,0.14,0.1,0.24,0.3,0.24h0.89
		c0.26,0,0.37-0.08,0.46-0.32l0.28-0.76l2.89,0.01l0.28,0.75c0.09,0.25,0.2,0.32,0.46,0.32h0.89c0.18,0,0.29-0.09,0.29-0.25
		c0-0.05-0.01-0.09-0.03-0.15l-1.23-3.01h-1.54L36.12,22.02z"/>
	<path class="st0" d="M39.24,24.05c0,0.27,0.12,0.4,0.4,0.4h2.41c1.31,0,2.58-0.34,2.58-1.77c0-0.92-0.46-1.41-1.27-1.64h-4.12
		V24.05z M40.77,21.67h1.11c0.86,0,1.23,0.25,1.23,0.81c0,0.51-0.26,0.81-1.03,0.81h-1.31V21.67z"/>
	<path class="st0" d="M45.77,24.05c0,0.27,0.12,0.4,0.4,0.4h0.77c0.27,0,0.4-0.12,0.4-0.4v-3.01h-1.56V24.05z"/>
	<path class="st0" d="M50.02,21.48l1.31,0.49c0.42,0.16,0.57,0.36,0.57,0.62c0,0.42-0.45,0.6-1.06,0.6c-0.63,0-1.2-0.21-1.66-0.62
		c-0.07-0.07-0.14-0.09-0.2-0.09c-0.1,0-0.19,0.07-0.27,0.17l-0.33,0.45c-0.06,0.09-0.11,0.19-0.11,0.29c0,0.03,0.01,0.07,0.02,0.1
		c0.09,0.2,0.33,0.38,0.49,0.47c0.61,0.41,1.33,0.59,2.06,0.59c1.54,0.01,2.68-0.64,2.68-1.88c0-0.73-0.2-1.22-0.89-1.63h-3.45
		C49.42,21.2,49.69,21.35,50.02,21.48z"/>
	<path class="st0" d="M58.12,22.02h-1.9l0.38-0.98h-1.54l-1.23,3.01c-0.03,0.06-0.04,0.11-0.04,0.16c0,0.14,0.1,0.24,0.3,0.24h0.89
		c0.26,0,0.37-0.08,0.46-0.32l0.28-0.76l2.89,0.01l0.28,0.75c0.09,0.25,0.2,0.32,0.46,0.32h0.89c0.18,0,0.29-0.09,0.29-0.25
		c0-0.05-0.01-0.09-0.03-0.15l-1.23-3.01h-1.54L58.12,22.02z"/>
	<path class="st0" d="M61.24,24.05c0,0.27,0.12,0.4,0.4,0.4h2.41c1.31,0,2.58-0.34,2.58-1.77c0-0.92-0.46-1.41-1.27-1.64h-4.12
		V24.05z M62.77,21.67h1.11c0.86,0,1.23,0.25,1.23,0.81c0,0.51-0.26,0.81-1.03,0.81h-1.31V21.67z"/>
	<path class="st0" d="M67.77,24.05c0,0.27,0.12,0.4,0.4,0.4h0.77c0.27,0,0.4-0.12,0.4-0.4v-3.01h-1.56V24.05z"/>
	<path class="st0" d="M32.5,18.08c0-0.16-0.11-0.26-0.33-0.26h-0.92c-0.26,0-0.37,0.09-0.43,0.33l-0.81,2.89h1.56l0.91-2.82
		C32.49,18.17,32.5,18.13,32.5,18.08z"/>
	<path class="st0" d="M24.62,18.16c-0.07-0.24-0.18-0.33-0.43-0.33h-0.93c-0.2,0-0.31,0.09-0.31,0.26c0,0.05,0.01,0.09,0.02,0.14
		l0.9,2.82h1.55L24.62,18.16z"/>
	<path class="st0" d="M28.6,18.17c-0.06-0.25-0.17-0.34-0.43-0.34h-0.9c-0.25,0-0.37,0.09-0.43,0.34l-0.69,2.88h1.29l0.27-1.11
		l0.27,1.11h1.29L28.6,18.17z"/>
	<path class="st0" d="M35.46,17.82h-0.88c-0.26,0-0.38,0.08-0.48,0.32l-1.19,2.89h1.54l0.57-1.49l0.57,1.49h1.54l-1.19-2.89
		C35.84,17.9,35.72,17.82,35.46,17.82z"/>
	<path class="st0" d="M44.06,19.52c0-1.32-1.28-1.69-2.58-1.69H39.4c-0.27,0-0.4,0.12-0.4,0.4v2.82h4.12
		c-0.01,0-0.02-0.01-0.03-0.01C43.66,20.8,44.06,20.36,44.06,19.52z M41.59,20.44h-1.06v-1.48h1.01c0.66,0,1.04,0.17,1.04,0.74
		C42.59,20.27,42.26,20.44,41.59,20.44z"/>
	<path class="st0" d="M46.63,17.82h-0.77c-0.27,0-0.4,0.12-0.4,0.4v2.82h1.56v-2.82C47.02,17.95,46.9,17.82,46.63,17.82z"/>
	<path class="st0" d="M50.38,20.26c-0.47-0.17-0.67-0.39-0.67-0.68c0-0.31,0.28-0.55,0.87-0.55c0.46,0,0.91,0.12,1.31,0.33
		c0.06,0.03,0.11,0.05,0.16,0.05c0.12,0,0.22-0.08,0.3-0.19l0.33-0.42c0.08-0.1,0.11-0.19,0.11-0.27c0-0.21-0.23-0.34-0.45-0.45
		c-0.56-0.26-1.15-0.37-1.76-0.36c-1.49,0-2.47,0.84-2.47,1.86c0,0.58,0.24,1.08,0.78,1.47h3.45c-0.2-0.12-0.45-0.23-0.74-0.34
		L50.38,20.26z"/>
	<path class="st0" d="M57.31,17.82h-0.88c-0.26,0-0.38,0.08-0.48,0.32l-1.19,2.89h1.54l0.57-1.49l0.57,1.49h1.54l-1.19-2.89
		C57.69,17.9,57.57,17.82,57.31,17.82z"/>
	<path class="st0" d="M65.99,19.52c0-1.32-1.28-1.69-2.58-1.69h-2.08c-0.27,0-0.4,0.12-0.4,0.4v2.82h4.12
		c-0.01,0-0.02-0.01-0.03-0.01C65.6,20.8,65.99,20.36,65.99,19.52z M63.52,20.44h-1.06v-1.48h1.01c0.66,0,1.04,0.17,1.04,0.74
		C64.52,20.27,64.19,20.44,63.52,20.44z"/>
	<path class="st0" d="M68.51,17.82h-0.77c-0.27,0-0.4,0.12-0.4,0.4v2.82h1.56v-2.82C68.91,17.95,68.78,17.82,68.51,17.82z"/>
</g>
</svg>
